<svg xmlns="http://www.w3.org/2000/svg" xmlns:xlink="http://www.w3.org/1999/xlink" width="77" zoomAndPan="magnify" viewBox="0 0 57.75 30.000001" height="40" preserveAspectRatio="xMidYMid meet" version="1.0"><defs><filter x="0%" y="0%" width="100%" height="100%" id="c0d1b4b047"><feColorMatrix values="0 0 0 0 1 0 0 0 0 1 0 0 0 0 1 0 0 0 1 0" color-interpolation-filters="sRGB"/></filter><g/><mask id="9f2ed7179b"><g filter="url(#c0d1b4b047)"><rect x="-5.775" width="69.3" fill="#000000" y="-3" height="36.000001" fill-opacity="0.51"/></g></mask><clipPath id="2209185832"><path d="M 0.351562 0.828125 L 7 0.828125 L 7 6.816406 L 0.351562 6.816406 Z M 0.351562 0.828125 " clip-rule="nonzero"/></clipPath><clipPath id="d1c63a8678"><rect x="0" width="8" y="0" height="8"/></clipPath><clipPath id="bf6dd3e0a0"><path d="M 8.996094 1.410156 L 47.871094 1.410156 L 47.871094 7 L 8.996094 7 Z M 8.996094 1.410156 " clip-rule="nonzero"/></clipPath><clipPath id="0ee9e5961e"><path d="M 34 6 L 47.871094 6 L 47.871094 8.894531 L 34 8.894531 Z M 34 6 " clip-rule="nonzero"/></clipPath></defs><g fill="#000000" fill-opacity="1"><g transform="translate(9.378588, 16.856515)"><g><path d="M 1.734375 -6.34375 L 4.234375 -6.34375 L 4.671875 -2.53125 L 6.734375 -6.34375 L 9.21875 -6.34375 L 9 -5.3125 C 8.769531 -5.3125 8.617188 -5.28125 8.546875 -5.21875 C 8.484375 -5.15625 8.425781 -5.015625 8.375 -4.796875 L 7.6875 -1.546875 C 7.65625 -1.441406 7.640625 -1.347656 7.640625 -1.265625 C 7.640625 -1.160156 7.671875 -1.09375 7.734375 -1.0625 C 7.804688 -1.039062 7.925781 -1.03125 8.09375 -1.03125 L 7.875 0 L 5.3125 0 L 5.53125 -1.03125 C 5.75 -1.03125 5.894531 -1.054688 5.96875 -1.109375 C 6.039062 -1.171875 6.097656 -1.316406 6.140625 -1.546875 L 6.703125 -4.171875 L 4.46875 0 L 3.359375 0 L 2.890625 -4.203125 L 2.328125 -1.546875 C 2.304688 -1.441406 2.296875 -1.347656 2.296875 -1.265625 C 2.296875 -1.160156 2.328125 -1.09375 2.390625 -1.0625 C 2.453125 -1.039062 2.566406 -1.03125 2.734375 -1.03125 L 2.515625 0 L 0.375 0 L 0.609375 -1.03125 C 0.828125 -1.03125 0.972656 -1.054688 1.046875 -1.109375 C 1.117188 -1.171875 1.179688 -1.316406 1.234375 -1.546875 L 2.015625 -5.296875 C 1.953125 -5.296875 1.875 -5.296875 1.78125 -5.296875 C 1.695312 -5.304688 1.609375 -5.3125 1.515625 -5.3125 Z M 1.734375 -6.34375 "/></g></g></g><g fill="#000000" fill-opacity="1"><g transform="translate(17.640929, 16.856515)"><g><path d="M 7.421875 -6.34375 L 6.96875 -4.25 L 5.953125 -4.25 C 5.972656 -4.363281 5.988281 -4.46875 6 -4.5625 C 6.019531 -4.65625 6.03125 -4.738281 6.03125 -4.8125 C 6.03125 -4.988281 5.96875 -5.097656 5.84375 -5.140625 C 5.71875 -5.179688 5.492188 -5.203125 5.171875 -5.203125 L 3.546875 -5.203125 L 3.234375 -3.75 L 5.21875 -3.75 L 4.984375 -2.609375 L 3 -2.609375 L 2.6875 -1.140625 L 4.3125 -1.140625 C 4.613281 -1.140625 4.832031 -1.15625 4.96875 -1.1875 C 5.113281 -1.226562 5.21875 -1.316406 5.28125 -1.453125 C 5.351562 -1.585938 5.421875 -1.800781 5.484375 -2.09375 L 6.515625 -2.09375 L 6.0625 0 L 0.40625 0 L 0.625 -1.03125 C 0.84375 -1.03125 0.988281 -1.054688 1.0625 -1.109375 C 1.132812 -1.171875 1.191406 -1.316406 1.234375 -1.546875 L 1.921875 -4.796875 C 1.953125 -4.898438 1.96875 -4.992188 1.96875 -5.078125 C 1.96875 -5.171875 1.929688 -5.234375 1.859375 -5.265625 C 1.796875 -5.296875 1.6875 -5.3125 1.53125 -5.3125 L 1.75 -6.34375 Z M 7.421875 -6.34375 "/></g></g></g><g fill="#000000" fill-opacity="1"><g transform="translate(23.97103, 16.856515)"><g><path d="M 0.953125 -3.171875 C 1.191406 -4.273438 1.640625 -5.09375 2.296875 -5.625 C 2.960938 -6.164062 3.851562 -6.4375 4.96875 -6.4375 C 5.5625 -6.4375 6.050781 -6.375 6.4375 -6.25 C 6.832031 -6.125 7.113281 -5.972656 7.28125 -5.796875 L 6.953125 -4.234375 L 5.921875 -4.234375 C 5.929688 -4.265625 5.9375 -4.289062 5.9375 -4.3125 C 5.9375 -4.332031 5.9375 -4.347656 5.9375 -4.359375 C 5.9375 -4.679688 5.820312 -4.90625 5.59375 -5.03125 C 5.375 -5.164062 5.054688 -5.234375 4.640625 -5.234375 C 4.066406 -5.234375 3.601562 -5.066406 3.25 -4.734375 C 2.894531 -4.410156 2.640625 -3.890625 2.484375 -3.171875 C 2.421875 -2.878906 2.390625 -2.617188 2.390625 -2.390625 C 2.390625 -1.953125 2.503906 -1.628906 2.734375 -1.421875 C 2.960938 -1.210938 3.300781 -1.109375 3.75 -1.109375 C 4.1875 -1.109375 4.550781 -1.179688 4.84375 -1.328125 C 5.144531 -1.484375 5.351562 -1.742188 5.46875 -2.109375 L 6.5 -2.109375 L 6.171875 -0.546875 C 5.921875 -0.378906 5.578125 -0.226562 5.140625 -0.09375 C 4.703125 0.03125 4.179688 0.09375 3.578125 0.09375 C 2.660156 0.09375 1.972656 -0.0820312 1.515625 -0.4375 C 1.054688 -0.800781 0.828125 -1.359375 0.828125 -2.109375 C 0.828125 -2.429688 0.867188 -2.785156 0.953125 -3.171875 Z M 0.953125 -3.171875 "/></g></g></g><g fill="#000000" fill-opacity="1"><g transform="translate(30.291066, 16.856515)"><g><path d="M 1.734375 -6.34375 L 4.296875 -6.34375 L 4.078125 -5.3125 C 3.859375 -5.3125 3.710938 -5.28125 3.640625 -5.21875 C 3.566406 -5.15625 3.503906 -5.015625 3.453125 -4.796875 L 3.234375 -3.765625 L 5.65625 -3.765625 L 5.875 -4.796875 C 5.90625 -4.898438 5.921875 -4.992188 5.921875 -5.078125 C 5.921875 -5.171875 5.882812 -5.234375 5.8125 -5.265625 C 5.75 -5.296875 5.640625 -5.3125 5.484375 -5.3125 L 5.703125 -6.34375 L 8.265625 -6.34375 L 8.046875 -5.3125 C 7.816406 -5.3125 7.664062 -5.28125 7.59375 -5.21875 C 7.53125 -5.15625 7.472656 -5.015625 7.421875 -4.796875 L 6.734375 -1.546875 C 6.703125 -1.441406 6.6875 -1.347656 6.6875 -1.265625 C 6.6875 -1.160156 6.71875 -1.09375 6.78125 -1.0625 C 6.84375 -1.039062 6.960938 -1.03125 7.140625 -1.03125 L 6.90625 0 L 4.359375 0 L 4.578125 -1.03125 C 4.796875 -1.03125 4.941406 -1.054688 5.015625 -1.109375 C 5.085938 -1.171875 5.144531 -1.316406 5.1875 -1.546875 L 5.40625 -2.578125 L 2.984375 -2.578125 L 2.765625 -1.546875 C 2.742188 -1.441406 2.734375 -1.347656 2.734375 -1.265625 C 2.734375 -1.160156 2.765625 -1.09375 2.828125 -1.0625 C 2.890625 -1.039062 3.003906 -1.03125 3.171875 -1.03125 L 2.953125 0 L 0.390625 0 L 0.609375 -1.03125 C 0.835938 -1.03125 0.988281 -1.054688 1.0625 -1.109375 C 1.132812 -1.171875 1.191406 -1.316406 1.234375 -1.546875 L 1.921875 -4.796875 C 1.953125 -4.898438 1.96875 -4.992188 1.96875 -5.078125 C 1.96875 -5.171875 1.929688 -5.234375 1.859375 -5.265625 C 1.796875 -5.296875 1.679688 -5.3125 1.515625 -5.3125 Z M 1.734375 -6.34375 "/></g></g></g><g fill="#000000" fill-opacity="1"><g transform="translate(37.587286, 16.856515)"><g><path d="M 2.65625 -6.34375 L 5.5625 -6.34375 L 6 -1.6875 C 6.03125 -1.488281 6.0625 -1.34375 6.09375 -1.25 C 6.132812 -1.15625 6.203125 -1.09375 6.296875 -1.0625 C 6.390625 -1.039062 6.519531 -1.03125 6.6875 -1.03125 L 6.46875 0 L 3.65625 0 L 3.890625 -1.03125 C 4.078125 -1.03125 4.207031 -1.046875 4.28125 -1.078125 C 4.363281 -1.117188 4.40625 -1.21875 4.40625 -1.375 C 4.40625 -1.414062 4.398438 -1.460938 4.390625 -1.515625 C 4.390625 -1.578125 4.378906 -1.644531 4.359375 -1.71875 L 4.34375 -2.109375 L 2.890625 -2.109375 L 2.703125 -1.734375 C 2.546875 -1.453125 2.46875 -1.265625 2.46875 -1.171875 C 2.46875 -1.109375 2.5 -1.066406 2.5625 -1.046875 C 2.632812 -1.035156 2.742188 -1.03125 2.890625 -1.03125 L 2.671875 0 L 0.125 0 L 0.34375 -1.03125 C 0.519531 -1.03125 0.65625 -1.039062 0.75 -1.0625 C 0.851562 -1.09375 0.941406 -1.15625 1.015625 -1.25 C 1.097656 -1.34375 1.195312 -1.488281 1.3125 -1.6875 L 3.15625 -5.296875 C 3.0625 -5.296875 2.953125 -5.296875 2.828125 -5.296875 C 2.703125 -5.304688 2.570312 -5.3125 2.4375 -5.3125 Z M 4.171875 -4.703125 L 3.328125 -2.984375 L 4.296875 -2.984375 L 4.21875 -4.28125 C 4.207031 -4.363281 4.195312 -4.441406 4.1875 -4.515625 C 4.1875 -4.585938 4.179688 -4.648438 4.171875 -4.703125 Z M 4.171875 -4.703125 "/></g></g></g><g fill="#000000" fill-opacity="1"><g transform="translate(44.158915, 16.856515)"><g><path d="M 0.390625 0 L 0.609375 -1.03125 C 0.835938 -1.03125 0.988281 -1.054688 1.0625 -1.109375 C 1.132812 -1.171875 1.191406 -1.316406 1.234375 -1.546875 L 1.921875 -4.796875 C 1.953125 -4.898438 1.96875 -4.992188 1.96875 -5.078125 C 1.96875 -5.171875 1.929688 -5.234375 1.859375 -5.265625 C 1.796875 -5.296875 1.679688 -5.3125 1.515625 -5.3125 L 1.734375 -6.34375 L 4.296875 -6.34375 L 4.078125 -5.3125 C 3.859375 -5.3125 3.710938 -5.28125 3.640625 -5.21875 C 3.566406 -5.15625 3.503906 -5.015625 3.453125 -4.796875 L 2.765625 -1.546875 C 2.742188 -1.441406 2.734375 -1.347656 2.734375 -1.265625 C 2.734375 -1.160156 2.765625 -1.09375 2.828125 -1.0625 C 2.890625 -1.039062 3.003906 -1.03125 3.171875 -1.03125 L 2.953125 0 Z M 0.390625 0 "/></g></g></g><g mask="url(#9f2ed7179b)"><g transform="matrix(1, 0, 0, 1, 27, 1)"><g clip-path="url(#d1c63a8678)"><g clip-path="url(#2209185832)"><path fill="#a6a6a6" d="M 2.625 3.011719 L 3.328125 3.714844 L 3.5 3.539062 L 2.699219 2.738281 C 2.59375 2.761719 2.496094 2.8125 2.414062 2.894531 C 2.335938 2.972656 2.28125 3.070312 2.261719 3.179688 L 3.0625 3.980469 L 3.234375 3.804688 L 2.535156 3.105469 C 2.507812 3.078125 2.507812 3.039062 2.535156 3.011719 C 2.558594 2.984375 2.601562 2.984375 2.625 3.011719 Z M 4.195312 2.625 C 4.210938 2.640625 4.230469 2.648438 4.253906 2.640625 C 4.472656 2.585938 4.71875 2.644531 4.890625 2.816406 C 5.0625 2.988281 5.121094 3.230469 5.0625 3.449219 C 5.058594 3.472656 5.0625 3.496094 5.082031 3.511719 L 5.246094 3.679688 C 5.273438 3.703125 5.3125 3.703125 5.339844 3.679688 L 6.140625 2.878906 C 6.167969 2.851562 6.167969 2.8125 6.140625 2.785156 L 4.917969 1.566406 C 4.894531 1.539062 4.851562 1.539062 4.828125 1.566406 L 4.027344 2.367188 C 4 2.394531 4 2.433594 4.027344 2.460938 Z M 5.046875 2.40625 C 5.113281 2.339844 5.226562 2.339844 5.300781 2.40625 C 5.371094 2.476562 5.371094 2.589844 5.300781 2.664062 C 5.230469 2.730469 5.117188 2.730469 5.046875 2.664062 C 4.972656 2.59375 4.972656 2.476562 5.046875 2.40625 Z M 6.199219 2.730469 C 6.222656 2.757812 6.265625 2.757812 6.289062 2.730469 L 6.351562 2.671875 C 6.378906 2.644531 6.378906 2.605469 6.351562 2.578125 L 5.125 1.355469 C 5.101562 1.328125 5.058594 1.328125 5.035156 1.355469 L 4.972656 1.414062 C 4.949219 1.441406 4.949219 1.480469 4.972656 1.507812 Z M 0.878906 2.671875 L 0.941406 2.730469 C 0.964844 2.757812 1.007812 2.757812 1.03125 2.730469 L 2.257812 1.507812 C 2.28125 1.480469 2.28125 1.441406 2.257812 1.414062 L 2.195312 1.355469 C 2.167969 1.328125 2.128906 1.328125 2.101562 1.355469 L 0.878906 2.582031 C 0.851562 2.605469 0.851562 2.644531 0.878906 2.671875 Z M 1.085938 2.882812 L 1.886719 3.679688 C 1.914062 3.707031 1.953125 3.707031 1.980469 3.679688 L 2.148438 3.515625 C 2.164062 3.496094 2.167969 3.476562 2.164062 3.453125 C 2.109375 3.234375 2.167969 2.992188 2.335938 2.816406 C 2.511719 2.644531 2.753906 2.585938 2.972656 2.644531 C 2.996094 2.652344 3.019531 2.644531 3.03125 2.628906 L 3.199219 2.460938 C 3.226562 2.433594 3.226562 2.394531 3.199219 2.367188 L 2.402344 1.566406 C 2.378906 1.539062 2.335938 1.539062 2.3125 1.566406 L 1.085938 2.789062 C 1.0625 2.816406 1.0625 2.855469 1.085938 2.882812 Z M 1.929688 2.40625 C 2 2.339844 2.113281 2.339844 2.183594 2.40625 C 2.253906 2.476562 2.253906 2.589844 2.183594 2.664062 C 2.113281 2.730469 2 2.730469 1.929688 2.664062 C 1.859375 2.59375 1.859375 2.476562 1.929688 2.40625 Z M 5.335938 1.144531 C 5.308594 1.121094 5.269531 1.121094 5.242188 1.144531 L 5.179688 1.207031 C 5.15625 1.234375 5.15625 1.273438 5.179688 1.300781 L 6.40625 2.523438 C 6.433594 2.550781 6.472656 2.550781 6.5 2.523438 L 6.558594 2.464844 C 6.585938 2.4375 6.585938 2.398438 6.558594 2.371094 Z M 6.382812 5.777344 L 6.390625 5.769531 C 6.417969 5.742188 6.417969 5.703125 6.390625 5.675781 L 5.273438 4.558594 C 5.246094 4.535156 5.207031 4.535156 5.179688 4.558594 L 5.171875 4.566406 L 5.113281 4.511719 C 5.109375 4.503906 5.097656 4.503906 5.09375 4.511719 L 5 4.601562 C 4.992188 4.609375 4.992188 4.621094 5 4.625 L 5.058594 4.683594 L 5.046875 4.691406 C 4.9375 4.800781 4.761719 4.800781 4.652344 4.691406 L 4.164062 4.203125 L 3.992188 4.378906 L 4.507812 4.894531 C 4.535156 4.921875 4.535156 4.960938 4.507812 4.988281 C 4.484375 5.011719 4.441406 5.011719 4.417969 4.988281 L 3.902344 4.472656 L 3.730469 4.644531 L 4.21875 5.132812 C 4.328125 5.242188 4.328125 5.421875 4.21875 5.53125 L 4.207031 5.539062 L 4.152344 5.480469 C 4.144531 5.476562 4.132812 5.476562 4.128906 5.480469 L 4.035156 5.574219 C 4.03125 5.578125 4.03125 5.589844 4.035156 5.597656 L 4.09375 5.652344 L 4.085938 5.664062 C 4.058594 5.6875 4.058594 5.730469 4.085938 5.753906 L 5.203125 6.871094 C 5.226562 6.898438 5.269531 6.898438 5.292969 6.871094 L 5.304688 6.863281 L 5.34375 6.902344 C 5.347656 6.910156 5.359375 6.910156 5.367188 6.902344 L 5.457031 6.8125 C 5.464844 6.804688 5.464844 6.792969 5.457031 6.789062 L 5.417969 6.75 L 5.4375 6.726562 C 5.5 6.667969 5.570312 6.636719 5.65625 6.628906 C 5.78125 6.625 5.90625 6.570312 6 6.476562 C 6.097656 6.382812 6.148438 6.261719 6.15625 6.132812 C 6.15625 6.046875 6.191406 5.972656 6.253906 5.914062 L 6.273438 5.894531 L 6.3125 5.933594 C 6.320312 5.941406 6.332031 5.941406 6.335938 5.933594 L 6.429688 5.839844 C 6.433594 5.835938 6.433594 5.824219 6.429688 5.820312 Z M 5.574219 6.050781 C 5.386719 6.238281 5.085938 6.238281 4.898438 6.050781 C 4.710938 5.863281 4.710938 5.5625 4.898438 5.375 C 5.085938 5.1875 5.386719 5.1875 5.574219 5.375 C 5.761719 5.5625 5.761719 5.867188 5.574219 6.050781 Z M 1.835938 1 L 1.691406 0.851562 C 1.671875 0.832031 1.640625 0.828125 1.613281 0.839844 C 1.351562 0.972656 1.105469 1.144531 0.886719 1.367188 C 0.667969 1.585938 0.496094 1.832031 0.363281 2.09375 C 0.351562 2.121094 0.351562 2.148438 0.375 2.167969 L 0.519531 2.316406 C 0.546875 2.339844 0.585938 2.339844 0.613281 2.316406 L 1.835938 1.089844 C 1.859375 1.066406 1.859375 1.023438 1.835938 1 Z M 6.863281 2.09375 C 6.734375 1.832031 6.558594 1.585938 6.339844 1.367188 C 6.121094 1.144531 5.875 0.972656 5.613281 0.839844 C 5.585938 0.828125 5.558594 0.832031 5.535156 0.851562 L 5.390625 1 C 5.363281 1.023438 5.363281 1.066406 5.390625 1.089844 L 6.613281 2.316406 C 6.640625 2.339844 6.679688 2.339844 6.707031 2.316406 L 6.851562 2.167969 C 6.875 2.148438 6.875 2.121094 6.863281 2.09375 Z M 2.046875 1.300781 C 2.070312 1.273438 2.070312 1.234375 2.046875 1.207031 L 1.984375 1.144531 C 1.957031 1.121094 1.917969 1.121094 1.890625 1.144531 L 0.667969 2.371094 C 0.640625 2.398438 0.640625 2.4375 0.667969 2.464844 L 0.730469 2.523438 C 0.753906 2.550781 0.796875 2.550781 0.820312 2.523438 Z M 3.101562 5.476562 C 3.097656 5.472656 3.085938 5.472656 3.078125 5.476562 L 3.023438 5.535156 L 3.011719 5.527344 C 2.902344 5.417969 2.902344 5.242188 3.011719 5.132812 L 4.96875 3.175781 C 4.949219 3.070312 4.894531 2.972656 4.816406 2.890625 C 4.734375 2.808594 4.636719 2.757812 4.527344 2.738281 L 2.574219 4.691406 C 2.464844 4.800781 2.289062 4.800781 2.179688 4.691406 L 2.167969 4.683594 L 2.226562 4.625 C 2.234375 4.621094 2.234375 4.609375 2.226562 4.601562 L 2.136719 4.511719 C 2.128906 4.503906 2.117188 4.503906 2.113281 4.511719 L 2.054688 4.566406 L 2.046875 4.558594 C 2.019531 4.535156 1.980469 4.535156 1.953125 4.558594 L 0.835938 5.675781 C 0.808594 5.703125 0.808594 5.742188 0.835938 5.769531 L 0.84375 5.777344 L 0.804688 5.820312 C 0.796875 5.824219 0.796875 5.835938 0.804688 5.839844 L 0.894531 5.933594 C 0.902344 5.941406 0.914062 5.941406 0.917969 5.933594 L 0.960938 5.894531 L 0.980469 5.914062 C 1.039062 5.972656 1.074219 6.046875 1.078125 6.132812 C 1.082031 6.257812 1.136719 6.382812 1.230469 6.476562 C 1.328125 6.570312 1.449219 6.625 1.574219 6.628906 C 1.660156 6.632812 1.734375 6.667969 1.792969 6.726562 L 1.816406 6.75 L 1.773438 6.789062 C 1.769531 6.792969 1.769531 6.804688 1.773438 6.8125 L 1.867188 6.902344 C 1.871094 6.910156 1.882812 6.910156 1.890625 6.902344 L 1.929688 6.863281 L 1.9375 6.871094 C 1.964844 6.898438 2.003906 6.898438 2.03125 6.871094 L 3.148438 5.753906 C 3.175781 5.730469 3.175781 5.6875 3.148438 5.664062 L 3.140625 5.652344 L 3.199219 5.597656 C 3.203125 5.589844 3.203125 5.578125 3.199219 5.574219 Z M 2.328125 6.050781 C 2.140625 6.238281 1.839844 6.238281 1.652344 6.050781 C 1.464844 5.863281 1.464844 5.5625 1.652344 5.375 C 1.839844 5.1875 2.140625 5.1875 2.328125 5.375 C 2.515625 5.5625 2.515625 5.867188 2.328125 6.050781 Z M 2.71875 4.988281 C 2.691406 4.964844 2.691406 4.921875 2.71875 4.898438 L 4.605469 3.011719 C 4.628906 2.984375 4.671875 2.984375 4.695312 3.011719 C 4.722656 3.039062 4.722656 3.078125 4.695312 3.105469 L 2.8125 4.988281 C 2.785156 5.011719 2.746094 5.011719 2.71875 4.988281 Z M 2.71875 4.988281 " fill-opacity="1" fill-rule="evenodd"/></g></g></g></g><g clip-path="url(#bf6dd3e0a0)"><path fill="#ffffff" d="M 44.332031 5.339844 C 43.851562 5.25 43.378906 5.128906 42.910156 4.984375 C 42.441406 4.835938 41.980469 4.667969 41.523438 4.484375 C 41.066406 4.296875 40.613281 4.097656 40.160156 3.894531 L 38.785156 3.265625 C 38.324219 3.054688 37.851562 2.847656 37.363281 2.648438 C 37.242188 2.601562 37.121094 2.550781 36.996094 2.503906 L 36.8125 2.433594 L 36.621094 2.367188 C 36.5 2.320312 36.371094 2.277344 36.242188 2.234375 C 36.179688 2.210938 36.117188 2.191406 36.050781 2.171875 C 35.988281 2.148438 35.921875 2.128906 35.859375 2.109375 C 35.726562 2.070312 35.597656 2.027344 35.464844 1.992188 C 35.398438 1.972656 35.332031 1.957031 35.265625 1.9375 L 35.066406 1.886719 C 34.933594 1.855469 34.796875 1.820312 34.664062 1.792969 L 34.460938 1.75 C 34.390625 1.734375 34.324219 1.71875 34.253906 1.707031 L 33.84375 1.632812 L 33.433594 1.570312 C 33.398438 1.566406 33.363281 1.5625 33.328125 1.558594 L 33.226562 1.546875 L 33.015625 1.519531 C 32.949219 1.511719 32.878906 1.503906 32.808594 1.496094 L 32.601562 1.480469 C 32.046875 1.429688 31.488281 1.410156 30.933594 1.414062 C 30.378906 1.417969 29.824219 1.445312 29.277344 1.496094 C 28.179688 1.59375 27.109375 1.78125 26.066406 2.019531 C 25.027344 2.261719 24.015625 2.5625 23.035156 2.90625 C 22.546875 3.078125 22.0625 3.257812 21.589844 3.449219 C 21.113281 3.640625 20.648438 3.84375 20.1875 4.054688 C 21.171875 3.726562 22.160156 3.414062 23.167969 3.148438 C 24.175781 2.878906 25.199219 2.652344 26.230469 2.472656 C 26.746094 2.382812 27.265625 2.3125 27.789062 2.253906 C 28.046875 2.222656 28.308594 2.199219 28.570312 2.179688 L 28.960938 2.152344 C 29.089844 2.144531 29.222656 2.140625 29.351562 2.132812 C 29.875 2.109375 30.398438 2.105469 30.914062 2.125 L 31.304688 2.140625 C 31.433594 2.148438 31.5625 2.160156 31.691406 2.167969 L 31.785156 2.175781 L 31.882812 2.183594 L 32.074219 2.203125 C 32.136719 2.210938 32.203125 2.214844 32.265625 2.222656 L 32.648438 2.269531 C 32.710938 2.277344 32.773438 2.289062 32.835938 2.300781 L 33.023438 2.328125 L 33.121094 2.34375 C 33.152344 2.347656 33.183594 2.355469 33.210938 2.359375 L 33.585938 2.429688 L 33.953125 2.511719 C 34.015625 2.523438 34.074219 2.539062 34.136719 2.554688 L 34.320312 2.601562 C 34.441406 2.628906 34.558594 2.664062 34.679688 2.699219 L 34.855469 2.75 C 34.917969 2.765625 34.972656 2.785156 35.035156 2.804688 C 35.152344 2.839844 35.265625 2.882812 35.382812 2.921875 C 36.316406 3.242188 37.207031 3.65625 38.097656 4.085938 C 38.992188 4.519531 39.890625 4.976562 40.855469 5.386719 C 41.039062 5.464844 41.226562 5.542969 41.417969 5.617188 C 40.84375 5.660156 40.273438 5.695312 39.699219 5.71875 L 39.152344 5.738281 L 38.605469 5.75 C 38.421875 5.757812 38.242188 5.757812 38.058594 5.757812 L 37.785156 5.761719 C 37.695312 5.761719 37.601562 5.761719 37.511719 5.761719 C 36.78125 5.765625 36.050781 5.75 35.316406 5.726562 C 34.585938 5.707031 33.851562 5.671875 33.117188 5.632812 C 32.382812 5.589844 31.648438 5.542969 30.914062 5.488281 C 29.445312 5.386719 27.976562 5.257812 26.5 5.132812 C 25.023438 5.007812 23.542969 4.882812 22.058594 4.785156 L 21.5 4.746094 C 21.316406 4.734375 21.128906 4.722656 20.945312 4.710938 C 20.570312 4.691406 20.199219 4.671875 19.824219 4.652344 C 19.636719 4.644531 19.449219 4.640625 19.261719 4.632812 L 18.699219 4.613281 C 18.511719 4.609375 18.324219 4.605469 18.136719 4.605469 L 17.851562 4.601562 C 17.757812 4.601562 17.664062 4.601562 17.570312 4.601562 C 17.382812 4.601562 17.195312 4.601562 17.003906 4.605469 L 16.722656 4.613281 C 16.628906 4.613281 16.535156 4.617188 16.441406 4.621094 L 16.15625 4.632812 L 15.875 4.648438 C 15.6875 4.65625 15.5 4.671875 15.3125 4.683594 C 14.558594 4.738281 13.8125 4.828125 13.078125 4.957031 C 12.34375 5.089844 11.625 5.261719 10.933594 5.480469 C 10.242188 5.703125 9.578125 5.96875 8.964844 6.285156 C 10.289062 5.773438 11.71875 5.457031 13.164062 5.296875 C 14.617188 5.136719 16.085938 5.132812 17.546875 5.199219 C 17.636719 5.203125 17.730469 5.207031 17.820312 5.214844 L 18.097656 5.230469 C 18.277344 5.238281 18.460938 5.253906 18.644531 5.265625 L 19.191406 5.304688 C 19.375 5.320312 19.558594 5.335938 19.742188 5.351562 C 20.105469 5.386719 20.472656 5.417969 20.839844 5.457031 C 21.203125 5.492188 21.570312 5.53125 21.9375 5.570312 C 23.402344 5.726562 24.867188 5.894531 26.339844 6.058594 C 29.277344 6.382812 32.242188 6.691406 35.25 6.804688 C 36.753906 6.867188 38.265625 6.875 39.777344 6.8125 C 40.535156 6.777344 41.289062 6.730469 42.042969 6.660156 C 42.796875 6.589844 43.550781 6.496094 44.296875 6.386719 L 47.414062 5.917969 Z M 44.332031 5.339844 " fill-opacity="1" fill-rule="nonzero"/></g><g clip-path="url(#0ee9e5961e)"><path fill="#5499d8" d="M 36.0625 8.527344 C 37.222656 8.78125 38.402344 8.96875 39.585938 9.078125 C 41.070312 9.214844 42.582031 9.230469 44.058594 8.992188 C 44.777344 8.878906 45.488281 8.699219 46.160156 8.421875 C 46.710938 8.191406 47.753906 7.820312 47.855469 7.132812 C 47.890625 6.890625 47.898438 6.523438 47.59375 6.335938 C 47.199219 6.089844 46.671875 6.335938 46.304688 6.476562 C 45.863281 6.644531 45.429688 6.820312 44.953125 6.953125 C 44.359375 7.113281 43.746094 7.25 43.125 7.371094 C 42.425781 7.503906 41.710938 7.628906 40.992188 7.71875 C 41.347656 7.777344 41.9375 7.855469 42.257812 7.894531 C 42.636719 7.945312 43.023438 7.984375 43.40625 8.019531 C 43.8125 8.054688 44.230469 8.082031 44.652344 8.09375 C 42.785156 8.46875 39.605469 8.796875 34.984375 8.265625 C 35.347656 8.359375 35.710938 8.449219 36.0625 8.527344 Z M 36.0625 8.527344 " fill-opacity="1" fill-rule="nonzero"/></g></svg>